<?xml version="1.0" encoding="UTF-8" standalone="no"?>
<!DOCTYPE svg PUBLIC "-//W3C//DTD SVG 1.1//EN" "http://www.w3.org/Graphics/SVG/1.1/DTD/svg11.dtd">
<svg width="100%" height="100%" viewBox="0 0 2160 1287" version="1.1" xmlns="http://www.w3.org/2000/svg" xmlns:xlink="http://www.w3.org/1999/xlink" xml:space="preserve" xmlns:serif="http://www.serif.com/" style="fill-rule:evenodd;clip-rule:evenodd;stroke-linejoin:round;stroke-miterlimit:2;">
    <g transform="matrix(1,0,0,1,1.45519e-11,-436.669)">
        <g transform="matrix(135.249,0,0,149.993,-90787.7,-96726.9)">
            <path d="M680.405,656.022C680.368,656.219 680.178,656.363 679.956,656.363L677.758,656.363C677.614,656.363 677.478,656.302 677.392,656.197C677.306,656.093 677.28,655.958 677.322,655.833C677.394,655.619 677.474,655.38 677.535,655.198C677.593,655.025 677.771,654.906 677.971,654.906L678.013,654.906C678.234,654.906 678.423,654.764 678.462,654.568C678.596,653.893 678.895,652.389 679.03,651.715C679.069,651.519 679.257,651.376 679.478,651.376C680.403,651.376 682.757,651.376 683.684,651.375C683.905,651.375 684.095,651.232 684.133,651.035C684.265,650.35 684.563,648.811 684.695,648.126C684.733,647.929 684.923,647.785 685.144,647.785L686.692,647.785C686.826,647.785 686.954,647.839 687.041,647.932C687.127,648.024 687.164,648.147 687.141,648.267C686.841,649.822 685.904,654.689 685.647,656.023C685.609,656.22 685.419,656.363 685.198,656.363L683.649,656.363C683.515,656.363 683.388,656.31 683.301,656.217C683.214,656.125 683.178,656.002 683.2,655.883C683.304,655.338 683.473,654.457 683.577,653.913C683.599,653.793 683.563,653.671 683.476,653.578C683.389,653.485 683.262,653.432 683.128,653.432L681.284,653.432C681.062,653.432 680.872,653.576 680.835,653.773C680.727,654.337 680.513,655.458 680.405,656.022ZM679.326,650.295C679.337,650.235 679.296,650.178 679.231,650.163C679.166,650.147 679.099,650.18 679.077,650.237C678.378,652.034 677.166,655.15 676.802,656.088C676.738,656.253 676.565,656.363 676.371,656.363L675.326,656.363C675.08,656.363 674.878,656.187 674.87,655.965C674.854,655.476 674.823,654.589 674.79,653.606C674.782,653.393 674.596,653.221 674.36,653.209C674.124,653.196 673.917,653.349 673.883,653.56C673.716,654.593 673.566,655.526 673.488,656.012C673.455,656.214 673.263,656.363 673.037,656.363L671.805,656.363C671.67,656.363 671.543,656.31 671.456,656.217C671.369,656.124 671.333,656.002 671.356,655.882C671.655,654.327 672.593,649.459 672.85,648.126C672.888,647.929 673.077,647.785 673.299,647.785L675.642,647.785C675.894,647.785 676.098,647.969 676.098,648.195C676.1,648.948 676.105,650.604 676.109,652.013C676.11,652.213 676.27,652.383 676.488,652.417C676.707,652.451 676.921,652.337 676.995,652.149C677.596,650.62 678.331,648.75 678.603,648.059C678.667,647.895 678.839,647.785 679.032,647.785L681.442,647.785C681.578,647.785 681.706,647.84 681.793,647.934C681.879,648.028 681.915,648.152 681.89,648.272C681.779,648.804 681.604,649.64 681.507,650.102C681.467,650.297 681.279,650.437 681.06,650.437L679.459,650.437C679.419,650.437 679.381,650.421 679.356,650.394C679.33,650.367 679.319,650.33 679.326,650.295C679.326,650.295 679.326,650.295 679.326,650.295Z"/>
        </g>
    </g>
</svg>
