<?xml version="1.0" encoding="UTF-8" standalone="no"?>
<!DOCTYPE svg PUBLIC "-//W3C//DTD SVG 1.1//EN" "http://www.w3.org/Graphics/SVG/1.1/DTD/svg11.dtd">
<svg width="100%" height="100%" viewBox="0 0 2173 1889" version="1.1" xmlns="http://www.w3.org/2000/svg" xmlns:xlink="http://www.w3.org/1999/xlink" xml:space="preserve" xmlns:serif="http://www.serif.com/" style="fill-rule:evenodd;clip-rule:evenodd;stroke-linejoin:round;stroke-miterlimit:2;">
    <g transform="matrix(1,0,0,1,6.5,-135.829)">
        <g transform="matrix(1.1444,0,0,1.1444,-89.5787,-139.669)">
            <path d="M563.377,912.956C512.811,1036.01 446.955,1184.66 379.19,1329.86C377.276,1333.96 377.317,1333.98 367.283,1354.56C257.403,1579.96 136.117,1810.45 78.276,1885.13C86.721,1873.71 127.077,1820.73 240.998,1592.09C307.38,1458.85 363.881,1335.66 366.312,1330.59C368.616,1325.78 471.563,1113.27 555.987,914.476C506.136,924.533 454.406,931.041 404.026,930.967C192.787,930.653 110.704,813.393 187.498,667.342C240.681,566.196 368.255,453.9 571.645,354.953C669.378,307.408 756.735,285.346 800.577,275.237C832.316,267.919 969.739,234.97 1149.21,243.367C1201.4,245.809 1249.64,251.448 1291.62,259.328C1292.22,259.44 1305.39,261.953 1321.36,265.774C1348.88,272.36 1368.8,278.807 1393.1,287.993C1516.78,334.749 1648.3,421.422 1674.39,622.416C1683.81,623.75 1692.88,625.242 1701.61,626.864C1701.75,626.892 1712.01,628.934 1725.09,632.178C1782.43,646.404 1828.68,667.17 1866.81,690.083C1913.24,717.988 1946.59,748.613 1965.73,766.463C1929.95,735.528 1874.56,690.471 1789.64,660.842C1744.75,645.181 1708.14,639.607 1697.77,637.707C1690.59,636.394 1683.27,635.185 1675.77,634.089C1677.44,649.603 1678.48,665.777 1678.87,682.644C1686.01,994.811 1253.74,1137.35 1181.43,961.907C1180.98,960.813 1179.14,956.954 1173.56,938.086C1153.81,871.279 1141.01,790.858 1133.24,708.057C1122.09,711.686 1110.8,715.454 1099.35,719.363C1067.65,969.626 1044.58,1034.73 1034.95,1056.59C1030.14,1067.5 1021.52,1083.84 1009.75,1080.56C1001.17,1078.18 995.39,1066.39 989.671,1051C979.321,1023.16 958.923,953.46 955.751,772.862C941.753,778.483 927.562,784.292 913.175,790.295C846.183,1120.22 814.874,1177.61 802.08,1192.93C788.998,1208.59 780.357,1195.3 779.53,1194.11C771.173,1182.03 767.207,1154.15 763.931,1124.02C754.011,1032.81 756.161,934.913 761.682,853.629C754.324,856.42 746.684,859.258 738.79,862.117C732.938,883.334 726.873,904.963 720.653,926.766C719.571,930.56 717.764,936.896 706.307,973.953C684.364,1044.93 596.481,1325.86 554.398,1365.45C551.729,1367.96 545.641,1373.02 539.465,1369.44C530.491,1364.23 527.547,1341.55 528.746,1300.85C532.681,1167.24 560.947,1010.01 581.95,908.89C575.795,910.294 569.602,911.652 563.377,912.956ZM1665.58,621.228C1637.32,419.615 1501.15,336.907 1372.91,292.29C1359.62,287.666 1334.34,279.18 1290.63,270.701C1272.97,267.275 1135.28,237.734 943.164,257.553C879.166,264.155 830.015,274.141 802.113,280.342C792.406,282.5 778.809,285.949 776.789,286.461C662.713,315.399 587.555,353.097 552.705,370.791C217.495,540.978 113.028,739.921 191.278,845.842C241.812,914.245 369.004,944.949 560.122,904.713C570.883,879.247 581.306,854.066 591.139,829.642C598.652,810.977 605.224,794.229 610.978,779.193C632.317,687.99 650.496,626.39 655.861,618.839C657.488,616.549 659.349,617.503 659.749,619.274C660.459,622.414 659.116,633.154 654.719,655.917C648.725,686.945 630.952,740.343 605.041,808.211C603.374,815.54 597.023,843.717 589.665,879.5C588.321,886.037 587.002,892.533 585.709,898.99C630.695,888.347 678.995,873.917 730.456,855.303C744.816,806.91 763.911,740.853 780.326,678.291C780.669,675.936 780.922,674.213 781.067,673.167C781.122,672.776 788.673,613.911 797.6,572.853C802.982,548.099 805.193,546.879 805.957,546.335C806.767,545.76 809.041,545.157 809.807,548.669C810.297,550.911 810.659,558.352 809.525,568.095C806.622,593.025 794.049,649.829 775.71,722.616C771.24,761.642 767.617,801.893 765.089,842.325C790.136,832.618 815.885,821.951 842.32,810.282C858.885,802.97 879.449,793.967 903.278,783.885C907.252,763.137 909.969,748.553 910.019,748.306C910.117,747.817 932.639,638.903 956.695,506.661C957.077,504.56 959.818,489.494 961.424,480.392C961.459,480.19 961.518,478.701 962.705,477.954C964.395,476.892 966.733,478.136 966.616,480.294C966.477,482.86 966.265,482.843 964.372,512.327C961.34,559.546 959.798,598.976 959.345,610.656C959.343,610.7 958.583,640.949 958.441,678.785C958.334,707.363 958.582,734.73 959.183,760.807C998.031,745.182 1042.11,728.332 1089.48,711.872C1092.05,689.644 1094.32,669.027 1096.25,651.016C1096.58,647.953 1108.52,555.129 1120.14,441.782C1121.71,426.397 1122.2,421.175 1122.37,419.581C1122.37,419.559 1122.37,419.537 1122.37,419.515L1122.38,419.515C1122.41,419.191 1122.44,419.033 1122.45,418.976C1122.96,417.042 1125.52,416.526 1126.74,418.111C1127.25,418.779 1127.24,419.537 1127.24,419.668C1127.24,419.682 1127.24,419.724 1127.23,419.795L1127.24,419.795C1127.23,419.864 1127.23,419.937 1127.22,420.015C1127.06,423.871 1125.48,459.151 1125.53,513.457C1125.53,513.532 1125.96,549.904 1128.22,596.532C1129.99,632.987 1132.38,666.238 1135.17,696.483C1178.27,682.436 1223.43,669.075 1269.35,657.48C1445.66,612.964 1572.5,609.32 1665.58,621.228ZM1136.18,707.102C1148.86,836.79 1168.93,908.997 1178.65,940.569C1182.48,952.995 1185.04,960.956 1190.51,970.896C1274.5,1123.52 1679.12,981.251 1670.64,682.852C1670.14,665.45 1668.94,648.804 1667.08,632.876C1541.74,616.268 1371.87,630.711 1136.18,707.102ZM1100.79,707.974C1111.14,704.43 1121.64,700.91 1132.27,697.43C1126.87,636.316 1124.15,574.172 1123.34,515.484C1123.3,512.624 1122.88,500.008 1122.56,481.956C1119.27,523.71 1114.32,582.767 1107.94,648.243C1107.65,651.189 1107.36,654.218 1103.62,684.995C1102.67,692.818 1101.72,700.477 1100.79,707.974ZM959.447,771.381C963.148,907.988 976.802,1007.91 1000.23,1059.36C1002.32,1063.95 1008.12,1075.67 1013.94,1073.88C1024.32,1070.7 1034.56,1037.02 1035.77,1033.14C1057.12,965.005 1075.8,828.614 1088.16,723.214C1047.18,737.424 1004.31,753.431 959.447,771.381ZM915.515,778.735C928.101,773.465 941.49,767.946 955.587,762.256C955.356,745.149 955.277,727.081 955.372,707.998C955.633,655.274 957.169,613.657 957.217,610.598C957.34,602.92 957.91,567.204 959.445,525.906C941.436,638.347 922.338,744.594 920.957,751.543C919.118,760.801 917.304,769.864 915.515,778.735ZM764.473,852.568C758.522,955.424 759.791,1058.87 772.372,1145.7C773.129,1150.92 778.091,1186.67 787.249,1193.24C788.624,1194.23 791.647,1195.94 798.027,1187.54C819.171,1159.72 852.274,1046.48 898.908,806.539C899.651,802.718 900.374,798.985 901.071,795.371C884.477,802.366 867.625,809.615 850.511,817.125C831.755,825.357 801.867,838.306 764.473,852.568ZM741.806,851.149C748.617,848.627 755.483,846.032 762.403,843.364C765.526,800.312 769.522,762.377 773.027,733.214C763.8,769.511 753.241,809.44 741.806,851.149ZM583.825,908.46C551.63,1071.37 535.811,1207.94 534.403,1304.72C534.302,1311.69 533.529,1353.37 541.47,1362.81C542.513,1364.05 543.998,1365.4 547.959,1362.37C568.514,1346.64 603.308,1252.39 613.922,1223.3C659.887,1097.32 706.234,935.393 708.594,927.627C708.635,927.491 716.162,903.253 727.195,866.265C684.726,881.271 635.664,896.531 583.825,908.46ZM567.394,903.155C572.856,901.963 578.369,900.715 583.932,899.408C592.625,858.098 599.832,827.324 603.149,813.156C592.475,840.98 580.476,871.156 567.394,903.155ZM613.952,771.381C645.837,687.191 650.626,659.993 652.732,649.36C655.982,632.95 656.868,625.732 657.036,622.457C651.163,634.437 634.59,688.132 613.952,771.381ZM782.295,670.756C782.685,669.254 783.074,667.754 783.461,666.258C806.562,576.929 806.379,562.058 806.543,558.715C806.706,555.391 806.706,553.184 806.642,551.716C802.147,562.783 792.656,603.676 782.295,670.756Z"/>
        </g>
    </g>
</svg>
