<?xml version="1.0" encoding="UTF-8" standalone="no"?>
<!DOCTYPE svg PUBLIC "-//W3C//DTD SVG 1.1//EN" "http://www.w3.org/Graphics/SVG/1.1/DTD/svg11.dtd">
<svg width="100%" height="100%" viewBox="0 0 2260 1976" version="1.1" xmlns="http://www.w3.org/2000/svg" xmlns:xlink="http://www.w3.org/1999/xlink" xml:space="preserve" xmlns:serif="http://www.serif.com/" style="fill-rule:evenodd;clip-rule:evenodd;stroke-linecap:round;stroke-linejoin:round;stroke-miterlimit:1.5;">
    <g transform="matrix(1,0,0,1,50,-92.3287)">
        <g transform="matrix(1.1444,0,0,1.1444,-89.5787,-139.669)">
            <path d="M78.276,1885.13C198.332,1727.86 617.859,832.471 653.128,655.599C688.398,478.727 538.865,982.081 531.563,1302.8C524.26,1623.52 803.718,651.348 808.284,560.819C812.851,470.29 730.809,864.761 769.396,1145.28C807.982,1425.8 964.067,480.26 964.067,480.118C964.067,479.977 934.05,918.333 997.007,1060.31C1059.96,1202.28 1124.81,419.592 1124.81,419.592C1124.81,419.592 1113.71,747.375 1180.09,952.083C1240.46,1138.27 1682.73,996.661 1674.75,682.748C1668.27,427.649 1509.27,333.342 1369.82,285.412C1222.65,234.833 873.004,211.014 572.9,357.524C-103.772,687.874 105.629,1140.54 846.413,813.702C1587.2,486.868 1836.61,649.738 1965.73,766.463" style="fill:none;stroke:#000;stroke-width:87.38px;"/>
        </g>
    </g>
</svg>
