<?xml version="1.0" encoding="UTF-8" standalone="no"?>
<!DOCTYPE svg PUBLIC "-//W3C//DTD SVG 1.1//EN" "http://www.w3.org/Graphics/SVG/1.1/DTD/svg11.dtd">
<svg width="100%" height="100%" viewBox="0 0 2160 2160" version="1.1" xmlns="http://www.w3.org/2000/svg" xmlns:xlink="http://www.w3.org/1999/xlink" xml:space="preserve" xmlns:serif="http://www.serif.com/" style="fill-rule:evenodd;clip-rule:evenodd;stroke-linejoin:round;stroke-miterlimit:2;">
    <rect id="bar-b-que-wagon" x="0" y="0" width="2160" height="2160" style="fill:none;"/>
    <clipPath id="_clip1">
        <rect id="bar-b-que-wagon1" serif:id="bar-b-que-wagon" x="0" y="0" width="2160" height="2160"/>
    </clipPath>
    <g clip-path="url(#_clip1)">
        <g transform="matrix(21.7304,0,0,21.7304,-28.2495,117.344)">
            <path d="M77.159,47.5L78.7,47.5C80.5,47.5 81.9,48.9 81.9,50.7C81.9,52.4 80.6,53.8 78.9,53.9L78.9,60.1C78.9,63.3 77.3,66.2 74.8,67.9L87.1,66.6C87.6,65.4 88.5,64.4 89.7,63.8L91.7,26.3C90.4,25.2 89.7,23.6 89.8,21.9L90.3,12.9C90.5,10.1 93,7.9 95.8,8.1C98.5,8.3 100.7,10.5 100.7,13.4L100.7,13.8L100.2,22.7C100.1,24.3 99.2,25.8 97.8,26.7L95.7,64.7C96.8,65.7 97.5,67.1 97.5,68.7C97.5,71.7 95.1,74.1 92.1,74.1C90.7,74.1 89.3,73.6 88.3,72.6L67.3,74.8C70.9,76.2 73.4,79.6 73.4,83.7C73.4,87.2 71.4,90.3 68.6,92L98.3,92C98.9,92 99.3,92.4 99.3,93C99.3,93.6 98.9,94 98.3,94L8.5,94C7.9,94 7.5,93.6 7.5,93C7.5,92.4 7.9,92 8.5,92L14.9,92C12,90.3 10.1,87.2 10.1,83.7C10.1,78.7 13.9,74.6 18.7,74.1L18.7,69.6L14.1,69.6C8.8,69.6 4.5,65.3 4.5,60L4.5,53.9C2.8,53.8 1.5,52.4 1.5,50.7C1.5,48.9 2.9,47.5 4.7,47.5L13.503,47.5C13.561,45.459 13.853,39.502 15.304,36.898C11.126,33.679 8.927,28.939 8.927,23.112C8.927,19.348 10.947,15.959 14.774,13.288C14.94,12.657 15.288,11.389 15.754,9.894C12.56,6.527 12.356,-0.5 12.348,-0.811L12.348,-0.837C12.348,-1.462 12.863,-1.977 13.489,-1.977L13.489,-1.977C16.876,-2.099 20.262,-1.744 23.548,-0.924C25.923,-2.538 28.578,-3.697 31.38,-4.34C33.732,-4.958 36.147,-5.313 38.578,-5.398C44.875,-5.468 51.091,-3.981 56.672,-1.074C59.716,-1.748 62.83,-2.051 65.947,-1.977L65.953,-1.977C66.579,-1.977 67.094,-1.462 67.094,-0.837C67.094,-0.799 67.092,-0.761 67.088,-0.723C66.822,1.642 66.247,3.961 65.378,6.175C73.004,14.554 77.351,26.903 77.351,40.218C77.351,42.878 77.291,45.299 77.159,47.5ZM78.5,49.5L4.5,49.5C3.8,49.5 3.3,50 3.3,50.7C3.3,51.3 3.9,51.9 4.6,51.9L78.5,51.9C79.2,51.9 79.7,51.4 79.7,50.7C79.7,50 79.2,49.5 78.5,49.5ZM74.898,47.5C75.019,45.329 75.071,42.91 75.071,40.218C75.071,27.806 71.158,16.308 64.282,8.382C62.577,11.09 60.577,11.708 59.105,11.708C58.928,11.708 58.754,11.667 58.595,11.588L56.321,10.447C56.141,10.359 55.987,10.224 55.875,10.057L51.314,3.215C51.119,2.922 51.07,2.555 51.181,2.222C51.296,1.875 51.773,0.905 53.619,-0.017C48.897,-2.118 43.766,-3.18 38.578,-3.118C36.327,-3.032 34.093,-2.698 31.915,-2.123C29.225,-1.507 26.683,-0.364 24.437,1.239C23.829,1.654 23.252,2.112 22.708,2.607C22.124,3.13 21.579,3.694 21.076,4.295C19.831,5.813 18.888,7.555 18.298,9.427C18.263,9.55 18.214,9.697 18.163,9.845C17.402,12.198 16.88,14.25 16.876,14.269C16.807,14.543 16.638,14.782 16.403,14.938C12.955,17.235 11.208,19.986 11.208,23.112C11.208,28.604 13.42,32.972 17.607,35.743C21.52,38.091 26.034,39.25 30.595,39.077C53.403,39.077 53.403,30.604 53.403,26.533L55.684,26.533C55.684,33.436 52.833,41.358 30.595,41.358C25.902,41.523 21.259,40.4 17.167,38.12C16.556,39.476 15.857,43.717 15.777,47.5L23.774,47.5C23.75,46.975 23.743,46.448 23.752,45.92L26.033,45.92C26.021,46.448 26.028,46.975 26.053,47.5L39.698,47.5C39.723,46.975 39.73,46.448 39.718,45.92L41.999,45.92C42.009,46.448 42.001,46.975 41.977,47.5L49.952,47.5C49.972,46.973 49.982,46.445 49.982,45.92L52.263,45.92C52.263,46.445 52.253,46.972 52.234,47.5L74.898,47.5ZM30.595,27.673C24.201,27.673 19.191,24.667 19.191,20.831C19.191,16.995 24.201,13.988 30.595,13.988C36.989,13.988 41.999,16.995 41.999,20.831C41.999,24.667 36.989,27.673 30.595,27.673ZM30.595,16.269C25.218,16.269 21.472,18.673 21.472,20.831C21.472,22.988 25.218,25.392 30.595,25.392C35.972,25.392 39.718,22.988 39.718,20.831C39.718,18.673 35.972,16.269 30.595,16.269ZM33.332,23.112L33.303,23.112C32.879,23.112 32.472,22.941 32.176,22.637C31.889,22.345 31.731,21.95 31.735,21.541C31.776,20.77 32.117,20.044 32.685,19.519C33.207,18.949 33.929,18.602 34.7,18.55L34.729,18.55C35.153,18.549 35.56,18.721 35.857,19.024C36.142,19.316 36.299,19.709 36.296,20.117C36.255,20.889 35.914,21.615 35.346,22.139L35.33,22.155C34.812,22.718 34.096,23.061 33.332,23.112ZM27.858,23.112C27.097,23.061 26.383,22.721 25.865,22.161L25.849,22.145C25.278,21.621 24.935,20.894 24.893,20.12C24.892,19.696 25.064,19.289 25.367,18.992C25.659,18.706 26.054,18.546 26.463,18.55L26.489,18.55C28.057,18.716 29.302,19.973 29.455,21.541C29.455,21.966 29.284,22.373 28.98,22.669C28.688,22.954 28.295,23.112 27.888,23.108L27.858,23.112ZM23.296,13.988C22.535,13.938 21.821,13.598 21.303,13.037L21.287,13.021C20.716,12.498 20.373,11.771 20.331,10.997C20.331,10.573 20.502,10.166 20.806,9.869C21.098,9.582 21.492,9.423 21.902,9.427L21.928,9.427C22.689,9.477 23.403,9.818 23.921,10.378C24.5,10.904 24.85,11.637 24.893,12.418C24.893,12.842 24.722,13.25 24.418,13.546C24.127,13.831 23.734,13.989 23.326,13.985L23.296,13.988ZM40.174,13.988L40.146,13.988C39.721,13.989 39.314,13.818 39.018,13.514C38.732,13.222 38.573,12.827 38.578,12.418C38.619,11.646 38.96,10.92 39.528,10.396C40.049,9.826 40.772,9.478 41.543,9.427L41.571,9.427C41.996,9.426 42.403,9.597 42.699,9.901C42.984,10.193 43.142,10.586 43.138,10.994C43.097,11.765 42.756,12.491 42.188,13.016L42.172,13.032C41.654,13.595 40.938,13.938 40.174,13.988ZM16.644,7.308C17.176,6.021 17.858,4.801 18.678,3.674C17.517,2.597 16.203,1.699 14.778,1.01C15.015,2.924 15.555,5.513 16.644,7.308ZM20.141,1.921C20.471,1.575 20.814,1.241 21.171,0.921L21.214,0.881C20.256,0.695 19.291,0.554 18.321,0.459C18.957,0.907 19.565,1.395 20.141,1.921ZM53.672,2.644L56.135,6.337C56.959,3.922 58.605,1.87 60.785,0.541C59.445,0.666 58.116,0.898 56.813,1.233C55.678,1.475 54.607,1.955 53.672,2.644ZM57.991,8.736L59.359,9.42C60.775,9.298 62.003,8.129 63.009,5.941C63.687,4.387 64.185,2.759 64.491,1.092C61.829,2.341 58.328,4.398 57.991,8.736ZM93.7,63.5L95.6,27.5L94.6,27.5C94.4,27.5 94.1,27.5 93.8,27.4L93.7,27.4L91.7,63.3C92.4,63.2 93.3,63.4 93.7,63.5ZM58.2,75.8C59.5,74.8 61,74.2 62.7,74.1L62.7,69.6L52.8,69.6L58.2,75.8ZM24.4,91.9L58.9,91.9C56,90.2 54.1,87.1 54.1,83.6C54.1,81 55.1,78.7 56.7,77L50.2,69.5L33.1,69.5L26.6,77C28.2,78.8 29.2,81.1 29.2,83.6C29.2,87.1 27.2,90.2 24.4,91.9ZM92,72C93.9,72 95.4,70.5 95.4,68.6C95.4,67.3 94.6,66.1 93.3,65.5C93.3,65.4 93.2,65.4 93.2,65.4C91.4,64.7 89.2,65.7 88.7,67.7C88.1,69.8 89.7,72 92,72ZM98.7,13.4L98.7,13.2C98.7,11.5 97.4,10.1 95.7,10C93.9,9.9 92.4,11.3 92.3,13L91.8,22C91.7,23.8 93,25.3 94.8,25.4C96.6,25.5 98.1,24.1 98.2,22.4L98.7,13.4ZM6.3,60C6.3,64.2 9.7,67.6 13.9,67.6L69.2,67.6C73.4,67.6 76.8,64.2 76.8,60L76.8,53.9L6.3,53.9L6.3,60ZM71.3,83.6C71.3,79.4 67.9,76 63.7,76C59.5,76 56.1,79.4 56.1,83.6C56.1,87.8 59.5,91.2 63.7,91.2C67.9,91.2 71.3,87.8 71.3,83.6ZM58.7,83.6C58.7,80.9 60.9,78.7 63.7,78.6C66.5,78.6 68.7,80.8 68.7,83.6C68.7,86.4 66.4,88.6 63.7,88.6C60.9,88.6 58.7,86.3 58.7,83.6ZM66.6,83.6C66.6,82 65.3,80.7 63.6,80.6C61.9,80.6 60.6,81.9 60.6,83.6C60.6,85.3 62,86.6 63.6,86.6C65.3,86.6 66.6,85.2 66.6,83.6ZM11.9,83.6C11.9,87.8 15.3,91.2 19.5,91.2C23.7,91.2 27.1,87.8 27.1,83.6C27.1,79.4 23.7,76 19.5,76C15.3,76 11.9,79.4 11.9,83.6ZM24.4,83.6C24.4,86.4 22.2,88.6 19.4,88.6C16.6,88.6 14.4,86.4 14.4,83.6C14.4,80.8 16.6,78.6 19.4,78.6C22.2,78.6 24.4,80.9 24.4,83.6ZM16.5,83.6C16.5,85.3 17.8,86.6 19.5,86.6C21.2,86.6 22.5,85.3 22.5,83.6C22.5,81.9 21.2,80.6 19.5,80.6C17.8,80.6 16.5,82 16.5,83.6ZM65.8,72.8L86.9,70.5L86.9,70.4C86.7,69.7 86.6,69.1 86.6,68.7L86.6,68.6L65.6,70.8C65,70.9 64.6,71.3 64.7,71.9C64.8,72.4 65.2,72.8 65.7,72.8L65.8,72.8ZM30.4,69.6L20.5,69.6L20.5,74.1C22.2,74.3 23.7,74.9 25,75.8L30.4,69.6ZM5.4,91.9C6,91.9 6.4,92.3 6.4,92.9C6.4,93.5 6,93.9 5.4,93.9L2.3,93.9C1.7,93.9 1.3,93.5 1.3,92.9C1.3,92.3 1.7,91.9 2.3,91.9L5.4,91.9Z"/>
        </g>
        <g transform="matrix(0.673955,0,0,0.673955,68.7723,453.21)">
            <path d="M353.255,1508.84C353.255,1489 345.392,1470.65 329.667,1458.29C322.928,1453.05 316.189,1450.43 308.326,1447.44C332.288,1435.83 345.767,1419.36 345.767,1392.02C345.767,1367.69 333.786,1345.6 310.947,1335.86C291.103,1327.25 269.762,1327.25 248.421,1327.25L161.932,1327.25L142.838,1402.13L161.932,1402.13L161.932,1576.98L248.421,1576.98C269.388,1576.98 294.473,1577.36 314.317,1569.49C339.027,1559.38 353.255,1535.05 353.255,1508.84ZM275.004,1410C275.004,1425.72 260.027,1426.84 248.421,1426.84L234.193,1426.84L234.193,1393.9L250.293,1393.9C259.279,1393.9 267.89,1393.9 272.757,1402.51C274.255,1404.75 275.004,1407.38 275.004,1410ZM275.753,1491.62C275.753,1509.96 258.53,1510.71 244.677,1510.71L234.193,1510.71L234.193,1472.15L247.672,1472.15C261.151,1472.15 275.753,1475.14 275.753,1491.62Z" style="fill-rule:nonzero;"/>
            <path d="M606.729,1576.98L534.469,1327.25L410.165,1327.25L391.07,1402.13L410.165,1402.13L358.871,1576.98L439.369,1576.98L447.231,1544.03L517.246,1544.03L525.108,1576.98L606.729,1576.98ZM501.521,1478.51L462.582,1478.51L482.051,1396.52L501.521,1478.51Z" style="fill-rule:nonzero;"/>
            <path d="M824.26,1576.98L776.336,1499.11C795.057,1487.12 803.668,1478.89 812.279,1458.29C817.147,1446.31 819.768,1433.21 819.768,1420.1C819.768,1390.9 807.786,1363.94 784.199,1346.35C761.36,1329.5 734.777,1327.25 707.071,1327.25L624.701,1327.25L605.606,1402.13L624.701,1402.13L624.701,1576.98L698.459,1576.98L698.459,1507.72L701.455,1507.72L735.526,1576.98L824.26,1576.98ZM745.26,1422.35C745.26,1438.45 732.156,1445.19 717.554,1445.19L698.459,1445.19L698.459,1399.51L716.805,1399.51C731.782,1399.51 745.26,1405.5 745.26,1422.35Z" style="fill-rule:nonzero;"/>
            <path d="M1004.73,1449.68C1004.73,1421.6 981.886,1397.27 953.431,1397.27C924.602,1397.27 901.763,1421.23 901.763,1449.68C901.763,1478.14 924.602,1502.1 953.431,1502.1C981.886,1502.1 1004.73,1477.76 1004.73,1449.68Z" style="fill-rule:nonzero;"/>
            <path d="M1291.9,1508.84C1291.9,1489 1284.03,1470.65 1268.31,1458.29C1261.57,1453.05 1254.83,1450.43 1246.97,1447.44C1270.93,1435.83 1284.41,1419.36 1284.41,1392.02C1284.41,1367.69 1272.43,1345.6 1249.59,1335.86C1229.74,1327.25 1208.4,1327.25 1187.06,1327.25L1100.57,1327.25L1081.48,1402.13L1100.57,1402.13L1100.57,1576.98L1187.06,1576.98C1208.03,1576.98 1233.11,1577.36 1252.96,1569.49C1277.67,1559.38 1291.9,1535.05 1291.9,1508.84ZM1213.64,1410C1213.64,1425.72 1198.67,1426.84 1187.06,1426.84L1172.83,1426.84L1172.83,1393.9L1188.93,1393.9C1197.92,1393.9 1206.53,1393.9 1211.4,1402.51C1212.9,1404.75 1213.64,1407.38 1213.64,1410ZM1214.39,1491.62C1214.39,1509.96 1197.17,1510.71 1183.32,1510.71L1172.83,1510.71L1172.83,1472.15L1186.31,1472.15C1199.79,1472.15 1214.39,1475.14 1214.39,1491.62Z" style="fill-rule:nonzero;"/>
            <path d="M1477.23,1449.68C1477.23,1421.6 1454.39,1397.27 1425.93,1397.27C1397.11,1397.27 1374.27,1421.23 1374.27,1449.68C1374.27,1478.14 1397.11,1502.1 1425.93,1502.1C1454.39,1502.1 1477.23,1477.76 1477.23,1449.68Z" style="fill-rule:nonzero;"/>
            <path d="M1813.82,1452.68C1813.82,1381.54 1756.91,1323.88 1685.4,1323.88C1613.89,1323.88 1556.98,1381.54 1556.98,1452.68C1556.98,1524.19 1615.76,1580.73 1686.52,1580.73C1715.35,1580.73 1728.46,1576.23 1753.17,1561.26L1768.52,1576.98L1807.46,1539.54L1792.11,1523.44C1808.58,1497.61 1813.82,1483.38 1813.82,1452.68ZM1737.44,1452.68C1737.44,1457.17 1737.07,1461.29 1736.32,1465.41L1721.72,1450.43L1682.78,1487.5L1697.38,1503.6C1693.64,1505.1 1691.02,1505.1 1687.27,1505.1C1657.32,1505.1 1632.98,1483.01 1632.98,1452.3C1632.98,1423.1 1655.82,1398.76 1685.4,1398.76C1715.35,1398.76 1737.44,1423.1 1737.44,1452.68Z" style="fill-rule:nonzero;"/>
            <path d="M2039.96,1470.65L2039.96,1327.25L1966.58,1327.25L1966.58,1462.41C1966.58,1481.13 1967.7,1507.72 1941.49,1507.72C1914.16,1507.72 1916.04,1481.51 1916.04,1462.04L1916.04,1327.25L1841.9,1327.25L1822.06,1402.13L1841.9,1402.13L1841.9,1470.65C1841.9,1506.59 1846.77,1542.16 1879.34,1563.13C1898.44,1575.48 1920.9,1581.1 1943.37,1581.1C1973.69,1581.1 1997.65,1572.49 2017.12,1548.9C2037.34,1524.56 2039.96,1501.35 2039.96,1470.65Z" style="fill-rule:nonzero;"/>
            <path d="M2247.01,1318.64L2178.49,1318.64L2175.87,1327.25L2079.65,1327.25L2060.93,1402.13L2079.65,1402.13L2079.65,1576.98L2222.68,1576.98L2241.02,1501.73L2153.41,1501.73L2153.41,1480.01L2226.42,1480.01L2241.02,1422.35L2153.41,1422.35L2153.41,1402.13L2226.42,1402.13L2247.01,1318.64Z" style="fill-rule:nonzero;"/>
        </g>
    </g>
</svg>
